<?xml version="1.0" encoding="UTF-8"?><svg id="a" xmlns="http://www.w3.org/2000/svg" viewBox="0 0 1024 1024"><path d="M3,674.15c40.68-53.13,104.44-132.79,146.36-186.15,13.85-17.54,160.19-202.22,169.27-213.73l19.77,33.46c42.18,71.22,296.43,501.86,332.26,562.39l-110.8-11.8L3,799l556.87-59.33-52.86,86.25-214.28-494.92,42.03,5.36C239.25,433.98,96.41,577.01,3,674.15h0Z"/><path d="M755.03,855.28l-18.84-8.69c.55-.06,1.41-.19,2.16-.31l2.34-.38c98.96-18.91,206.18-72.06,253.68-165.07,38.07-73.68,27.64-159.99-2.47-234.57-16.47-40.7-37.32-79.81-62.77-115.61-43.89-62.34-105.83-115.26-180.6-135.02-105.62-28.39-284.86,77.06-282.17,63.09,0,0,195.21,391.88,288.68,596.56ZM341.98,229.58c2.72-11.2,201.05-90.88,289.6-85.83,90.51,5.15,172.03,41.64,235.72,105.89,31.36,31.23,57.85,67.28,80.5,105.19,37.87,63.84,69.51,134.19,74.55,209.12,11.72,166.43-131.37,267.5-273.52,314.86-4.85,1.67-12.14,3.37-16.87,4.7-133.68-211.5-267.46-431.18-389.98-653.94h0Z"/></svg>