<?xml version="1.0" encoding="UTF-8"?><svg id="a" xmlns="http://www.w3.org/2000/svg" viewBox="0 0 208.4 382.34"><defs><style>.b{fill:#010101;}</style></defs><path class="b" d="M13.44,0c.45,.44,1.04,.22,1.56,.33,2.49,.54,4.63,1.69,6.44,3.46,.23,.22,.46,.45,.68,.67,61.87,61.9,123.73,123.8,185.62,185.67,.86,.86,.89,1.28,0,2.16-62.06,62.04-124.1,124.11-186.13,186.18-6.57,6.57-17.45,4.45-20.68-4.1-1.92-5.08-.88-9.7,2.96-13.54,56.18-56.23,112.37-112.45,168.58-168.64,.74-.74,.81-1.1,.03-1.88C116.35,134.18,60.21,78.02,4.08,21.86-1.05,16.73-1.33,9.31,3.42,4.1,5.37,1.96,7.83,.73,10.68,.25c.22-.04,.51,.1,.6-.25h2.16Z"/></svg>