<?xml version="1.0" encoding="UTF-8"?><svg id="a" xmlns="http://www.w3.org/2000/svg" viewBox="0 0 377.44 268.66"><defs><style>.b{fill:#fff;}</style></defs><path class="b" d="M0,57.47c20.12,18.03,39.72,35.58,59.31,53.15,18.29,16.41,36.48,32.92,54.85,49.23,17.06,15.14,33.62,30.88,51.35,45.23,15.48,12.53,33.31,12.25,48.45-.75,16.37-14.05,32.32-28.57,48.4-42.95,16.83-15.05,33.61-30.14,50.37-45.26,17.04-15.37,34.04-30.79,51.06-46.18,4.3-3.89,8.63-7.77,13.63-12.27,0,4.71,0,8.51,0,12.31-.01,58.59-.02,117.19-.04,175.78,0,14.69-8.31,22.91-23.09,22.91-110.34,0-220.69,0-331.03,0-14.71,0-23.27-8.6-23.27-23.37C0,184.08,0,122.87,0,61.65c0-1.2,0-2.41,0-4.18Z"/><path class="b" d="M188.91,.05c55.62,0,111.25,.07,166.87-.05,14.62-.03,21.5,12.2,21.58,22.98,.01,1.71-1.07,2.44-2.04,3.3-9.23,8.2-18.49,16.36-27.76,24.51-13.86,12.18-27.75,24.34-41.61,36.52-13.96,12.26-27.92,24.52-41.87,36.79-13.58,11.94-27.14,23.9-40.71,35.86-6.64,5.85-13.18,11.82-19.94,17.54-6.6,5.57-21.71,5.53-28.26-.1-12.2-10.49-24.24-21.14-36.36-31.72-15.31-13.37-30.63-26.72-45.93-40.1-15.29-13.38-30.55-26.81-45.83-40.2C32.33,52.48,17.73,39.42,2.73,26.84-.37,24.24,.26,22,.72,19.11,1.93,11.44,5.51,5.41,12.67,1.91,15.35,.59,18.23,.02,21.29,.02c55.87,.04,111.75,.03,167.62,.03Z"/></svg>