<?xml version="1.0" encoding="UTF-8"?><svg id="a" xmlns="http://www.w3.org/2000/svg" viewBox="0 0 133.85 133.4"><defs><style>.b{fill:#fff;}</style></defs><path class="b" d="M133.85,61.92v10.45c-.4,.16-.24,.51-.26,.79-.51,5.43-1.5,10.79-3.44,15.88-9.55,24.97-27.49,39.79-53.9,44.3-1.08,.19-1.19-.08-1.19-1.03,.03-16.68,.03-33.36,0-50.04,0-1.02,.31-1.21,1.25-1.2,4.53,.05,9.06,0,13.59,.03,.88,0,1.34-.07,1.47-1.18,.62-5.45,1.33-10.88,2.11-16.31,.14-1.02-.01-1.22-1.02-1.21-5.44,.05-10.89,.03-16.33,.02-.48,0-1.05,.2-1.04-.7,.05-4.31-.12-8.63,.13-12.93,.29-4.86,2.76-7.02,7.62-7.29,3.48-.2,6.97-.09,10.45-.11,.7,0,.98-.15,.98-.92-.03-4.96-.03-9.93,0-14.89,0-.74-.25-.95-.96-1.01-5.17-.45-10.34-.77-15.52-.51-5.2,.25-10,1.76-14.05,5.18-5.15,4.35-7.28,10.14-7.75,16.66-.37,5.09-.13,10.19-.14,15.28,0,.98-.19,1.31-1.25,1.3-4.57-.07-9.14,0-13.72-.05-.86,0-1.19,.12-1.18,1.1,.05,5.49,.05,10.97,0,16.46,0,.92,.25,1.16,1.16,1.15,4.62-.05,9.23,0,13.85-.03,.78,0,1.14,.09,1.14,1.04-.03,16.64-.03,33.27,0,49.91,0,.83-.16,.99-1.02,.83-6.67-1.25-12.99-3.46-18.97-6.65-13.77-7.34-23.83-18.15-30.14-32.41C-.08,80.83-1.42,67.32,1.49,53.49,4.9,37.24,13.2,23.83,26.55,13.95,46.06-.5,67.7-3.94,90.35,4.65c24.26,9.2,38.41,27.36,42.81,53,.24,1.42,.12,2.9,.68,4.27Z"/></svg>