<?xml version="1.0" encoding="UTF-8"?><svg id="a" xmlns="http://www.w3.org/2000/svg" viewBox="0 0 134.84 134.81"><defs><style>.b{fill:#fff;}</style></defs><path class="b" d="M134.84,33.47V101.64c-.75,1.45-.62,3.1-1.04,4.64-3.9,14.16-12.86,23.28-26.98,27.35-1.87,.54-3.84,.53-5.67,1.18H33.24c-.13-.42-.51-.28-.77-.31-3.4-.48-6.74-1.25-9.83-2.72C8.13,124.9,.35,113.41,.14,97.34c-.26-19.95-.07-39.92-.06-59.87,0-6.43,1.39-12.56,4.63-18.12C12.07,6.74,23.15,.18,37.76,.08c19.78-.14,39.57-.04,59.35-.03,3.12,0,6.23,.25,9.25,1.07,14.14,3.86,23.24,12.83,27.31,26.93,.52,1.79,.47,3.68,1.18,5.42Zm-11.95,34.09c0-9.78,0-19.56,0-29.34,0-3.08-.31-6.12-1.35-9.05-3.83-10.72-13.05-17.16-24.67-17.17-19.61-.02-39.21,0-58.82,0-2.99,0-5.95,.32-8.79,1.33-10.72,3.79-17.21,13.04-17.23,24.63-.03,19.65-.01,39.3,0,58.95,0,2.99,.34,5.95,1.35,8.79,3.8,10.63,12.93,17.13,24.41,17.16,19.78,.06,39.56,.04,59.35,0,8.78-.02,15.87-3.54,21.07-10.65,3.35-4.58,4.71-9.8,4.7-15.43-.02-9.74,0-19.47,0-29.21Z"/><path class="b" d="M67.44,102.16c-19.08-.03-34.74-15.7-34.71-34.75,.03-19.08,15.7-34.74,34.75-34.71,19.08,.03,34.74,15.7,34.71,34.75-.03,19.08-15.7,34.74-34.75,34.71Zm0-57.48c-12.54,.02-22.71,10.18-22.74,22.73-.03,12.51,10.11,22.69,22.7,22.77,12.51,.08,22.88-10.28,22.81-22.8-.07-12.57-10.25-22.73-22.77-22.71Z"/><path class="b" d="M103.84,22.6c4.82,.15,8.69,4.13,8.58,8.82-.12,4.91-4.16,8.77-9.03,8.64-4.75-.13-8.68-4.24-8.51-8.89,.18-4.89,4.18-8.71,8.96-8.56Z"/></svg>