<?xml version="1.0" encoding="UTF-8"?><svg xmlns="http://www.w3.org/2000/svg" viewBox="0 0 250 289"><g id="a"><circle cx="126.5" cy="72.5" r="72.5"/><path d="M250,237v21.37c0,6.46-1.68,12.85-5.13,18.32-3.87,6.16-10.37,12.31-20.87,12.31H26c-10.5,0-17-6.15-20.87-12.31-3.45-5.47-5.13-11.86-5.13-18.32v-21.37c0-54.97,47.96-69.89,62.76-73.18,2.48-.56,5.01-.82,7.55-.82h7.8c4.63,0,9.2,.92,13.47,2.67,15.27,6.27,33.42,6.03,33.42,6.03,0,0,18.15,.24,33.42-6.03,4.27-1.75,8.84-2.67,13.47-2.67h7.8c2.54,0,5.07,.26,7.55,.82,14.8,3.29,62.76,18.21,62.76,73.18Z"/></g><g id="b"/></svg>