<?xml version="1.0" encoding="UTF-8"?><svg id="a" xmlns="http://www.w3.org/2000/svg" viewBox="0 0 256 256"><defs><style>.b{fill:#040404;}</style></defs><path class="b" d="M14.53,100.4c-.06-48.51,40.88-88.14,88.72-85.87,49.95,2.37,87.22,44.6,82.55,93.66-1.45,15.21-6.5,29.19-15.53,41.57-1.82,2.49-1.73,3.83,.5,6.03,17.66,17.45,35.18,35.04,52.71,52.62,4.62,4.63,5.49,9.26,2.83,13.92-3.69,6.46-11.62,7.33-17.38,1.66-11.51-11.35-22.88-22.83-34.31-34.26-6.36-6.36-12.84-12.61-19.04-19.13-2.05-2.16-3.28-2.11-5.66-.45-50.86,35.44-119.62,8.91-133.41-51.4-1.38-6.04-1.87-12.17-1.98-18.35ZM100.69,35.93c-35.61-.11-64.6,28.37-64.78,63.64-.19,36.08,28.49,65.2,64.28,65.26,35.36,.06,64.4-28.69,64.63-63.99,.24-35.62-28.59-64.8-64.12-64.91Z"/></svg>