<?xml version="1.0" encoding="UTF-8"?><svg xmlns="http://www.w3.org/2000/svg" viewBox="0 0 511.18 421.95"><defs><style>.c{fill:#fff;}</style></defs><g id="a"/><g id="b"><g><path class="c" d="M0,160.56c2-5.46,1.25-11.24,1.89-16.86,3.69-32.09,14.38-61.08,36.99-84.83,15.57-16.36,34.52-27.75,55.38-36.01,24.42-9.68,49.9-14.92,75.9-18.11C213.03-.5,256.05-.85,299.09,1.07c35.62,1.59,70.99,5.62,105.1,16.82,28.09,9.23,53.49,22.9,73.23,45.63,16.49,18.99,25.94,41.22,30.6,65.7,2.27,11.94,3.36,23.96,3.05,36.12-.06,2.45-.48,3.41-3.24,3.4-32.93-.1-65.86-.11-98.79,0-3.28,.01-3.63-1.38-3.9-4.12-1.62-15.99-4.35-31.69-11.56-46.35-7.47-15.18-19.17-25.51-34.81-31.47-14.24-5.43-29.25-7.26-44.29-7.9-36.23-1.53-72.5-1.58-108.75-1.01-16.9,.27-33.74,1.99-49.83,7.84-16.37,5.95-28.85,16.38-37.09,31.92-7.98,15.07-10.7,31.47-12.82,48.05-.29,2.29-.79,3.03-3.19,3.02-34.26-.13-68.52-.14-102.78-.19v-7.98Z"/><path class="c" d="M0,180.53c1.63-.14,3.27-.41,4.9-.41,32.04-.02,64.09,.08,96.13-.13,4.33-.03,4.97,1.23,4.96,5.24-.03,8.08-3.52,15.07-7.69,21.1-2.9,4.18-8.57,7.05-14.3,8.13-16.11,3.04-32.4,2.3-48.6,1.68-11.07-.43-21.86-2.72-29.54-12.35-3.08-3.86-2.34-8.4-3.75-12.51-.76-2.22-.48-4.78-2.11-6.75v-3.99Z"/><path class="c" d="M250.92,421.95c-64.86,0-129.71,0-194.57,0-6.9,0-13.18-1.32-17.06-7.88-1.73-2.93-2.34-6.16-2.34-9.48-.04-28.27,0-56.54-.04-84.81,0-3.86,1.93-6.93,3.78-10.03,15.45-25.99,33.57-50.13,51.59-74.33,16.66-22.38,33.45-44.67,52.18-65.39,1.59-1.76,2.09-3.57,2.06-5.86-.1-7.32-.09-14.63-.02-21.95,.05-5.88,1.43-7.84,7.23-8.65,11.87-1.64,23.82-1.64,35.69-.01,6.09,.83,7.33,2.73,7.37,8.99,.04,5.65,.12,11.31-.04,16.96-.07,2.42,.72,3.09,3.1,3.08,34.26-.07,68.52-.08,102.78,.02,2.73,0,2.86-1.19,2.83-3.29-.1-5.82,0-11.64-.04-17.46-.03-4.85,2.13-7.73,7.1-8.34,11.9-1.47,23.84-1.58,35.7,0,6.47,.86,7.9,3.03,7.94,9.71,.04,7.15,.1,14.3-.04,21.45-.04,2.33,.69,3.99,2.2,5.74,35.67,41.44,67.96,85.41,98.36,130.82,5.86,8.76,9.06,17.72,8.71,28.67-.76,24.26-.23,48.55-.24,72.83,0,13.22-5.74,18.94-19.13,18.94-65.02,.01-130.05,0-195.07,0v.26Zm59.27-120.81c-7.62,.08-13.95,6.52-13.75,13.99,.19,7.42,6.88,13.92,14.13,13.75,7.4-.18,13.91-6.85,13.79-14.13-.13-7.56-6.51-13.69-14.17-13.61Zm-105.3-85.83c-.1-7.52-6.66-13.99-13.98-13.8-7.47,.19-13.77,6.73-13.66,14.18,.11,7.51,6.61,13.87,14.04,13.74,7.62-.14,13.71-6.46,13.61-14.11Zm59.64,49.77c-.05-7.69-6.33-13.83-13.99-13.7-7.53,.13-14.07,6.74-13.85,14.01,.22,7.27,7.06,13.97,14.16,13.87,7.44-.11,13.74-6.63,13.69-14.18Zm-.02-48.87c.35-7.83-5.86-14.53-13.61-14.7-7.11-.15-14.38,6.51-14.11,13.77,.3,8.12,5.28,13.52,13.67,14.09,7.24,.49,13.72-5.82,14.05-13.16Zm59.84-.85c-.13-7.34-6.86-13.95-14.1-13.85-7.34,.11-13.92,6.82-13.82,14.11,.1,7.41,6.72,13.9,14.08,13.8,7.41-.1,13.96-6.76,13.84-14.07Zm-133.43,85.7c-7.56,.09-14.09,6.59-13.69,14.02,.46,8.33,5.92,13.4,14.02,13.78,7.32,.35,13.83-6.74,13.76-14.11-.07-7.54-6.5-13.79-14.09-13.69Zm14-35.96c-.04-7.62-6.33-13.83-13.94-13.76-7.59,.08-13.98,6.45-13.69,13.98,.33,8.63,6.21,13.82,13.92,13.74,8.17-.09,13.51-5.86,13.72-13.96Zm46.06,36c-7.09-.05-13.43,4.49-14.25,13.56-.64,7.05,6.27,13.87,13.7,14.19,7.3,.32,13.93-6.11,14.1-13.65,.17-7.79-5.8-14.01-13.55-14.1Zm73.37-35.72c.17-7.39-6.28-13.92-13.83-14-7.57-.08-14.02,6.19-14.09,13.72-.07,7.23,6.54,14,13.81,14.14,7.14,.14,13.94-6.54,14.11-13.86Z"/><path class="c" d="M458.43,180.1c15.94,0,31.89,.21,47.82-.13,4.62-.1,5.41,1.71,4.71,5.4-.92,4.86-.89,10.33-3.25,14.38-3.05,5.25-7.73,10.19-14.04,11.61-22.26,5.01-44.77,4.35-67.11,.85-6.32-.99-12.66-4.14-15.86-11.16-2.4-5.28-4.89-10.37-5.43-16.27-.32-3.52,.32-4.86,4.34-4.8,16.27,.26,32.54,.11,48.82,.11Z"/></g></g></svg>