<?xml version="1.0" encoding="UTF-8"?><svg xmlns="http://www.w3.org/2000/svg" viewBox="0 0 525.8 721.8"><g id="a"/><g id="b"><g><path d="M313.3,506.79H178.47c1.65-26.46,7.07-51.57,19.3-75.03,19.38-37.17,48.79-65.05,82.2-89.21,22.69-16.41,45.68-32.45,65.44-52.43,14.01-14.16,27.1-29.37,32.4-49.11,9.01-33.56,6.37-65.57-16.88-93.3-15.13-18.04-35.59-26.95-58.38-30.88-27.7-4.77-55.14-4.3-81.66,6.09-42.98,16.83-67.1,49.07-75.55,93.81-.37,1.96-.69,3.93-1.11,6.34-47.79-2.02-95.52-4.04-144.23-6.1,2.18-10.77,3.89-21.2,6.45-31.43,10.45-41.75,28.73-79.36,59.09-110.51C98.86,40.85,139.74,20.3,185.6,9.13,225.65-.62,266.35-1.59,307.27,1.71c35.09,2.83,69.17,9.94,101.49,24.22,57.16,25.25,96.65,66.33,110.88,128.28,11.36,49.48,8.13,97.67-19.03,142.29-13.61,22.36-31.63,40.81-52.31,56.56-23.98,18.26-48.56,35.74-72.62,53.89-18.45,13.91-35.1,29.64-47.35,49.59-9.45,15.39-14.18,32.13-15.02,50.25Z"/><path d="M320.15,586.42v135.38H174.77v-135.38h145.38Z"/></g></g></svg>