<?xml version="1.0" encoding="UTF-8"?><svg id="a" xmlns="http://www.w3.org/2000/svg" viewBox="0 0 1024 1024"><defs><style>.b{fill:#fff;}</style></defs><circle class="b" cx="512" cy="513.5" r="406.5"/><g><path d="M206.82,574.29c24.34-31.79,62.5-79.46,87.58-111.39,8.29-10.5,95.86-121,101.29-127.89l11.83,20.02c25.24,42.62,177.38,300.3,198.82,336.52l-66.3-7.06-333.22-35.5,333.22-35.5-31.63,51.61-128.22-296.15,25.15,3.2c-57.15,58.41-142.62,144-198.52,202.13h0Z"/><path d="M656.82,682.68l-11.27-5.2c.33-.03,.84-.12,1.29-.18l1.4-.23c59.21-11.32,123.38-43.12,151.8-98.77,22.78-44.09,16.54-95.74-1.48-140.36-9.85-24.36-22.33-47.76-37.56-69.18-26.26-37.3-63.33-68.97-108.07-80.79-63.2-16.99-170.45,46.11-168.85,37.75,0,0,116.81,234.49,172.74,356.97Zm-247.16-374.41c1.63-6.7,120.31-54.38,173.29-51.36,54.16,3.08,102.94,24.92,141.05,63.37,18.76,18.69,34.62,40.26,48.17,62.95,22.66,38.2,41.59,80.3,44.61,125.13,7.01,99.59-78.61,160.06-163.67,188.41-2.9,1-7.26,2.01-10.09,2.81-79.99-126.56-160.04-258.01-233.36-391.31h0Z"/></g><g><path d="M267,791.87c0-3.33,1.67-5,5-5h25c3.33,0,5,1.67,5,5v20h-5v-10h-25v10h-5v-15h30v-5h-30Z"/><path d="M307,791.87v-5h30c3.33,0,5,1.67,5,5v5c0,3.33-1.64,5-4.92,5h-5.08l10,10h-6.25l-10-10h-13.75v10h-5v-15h30v-5h-30Z"/><path d="M347,786.87h30l5,5h-15v20h-5v-20h-10l-5-5Z"/><path d="M392,786.87v25h-5v-25h5Z"/><path d="M432,791.87h-30v5h25c3.33,0,5,1.67,5,5v5c0,3.33-1.67,5-5,5h-30v-5h30v-5h-25c-3.33,0-5-1.67-5-5v-5c0-3.33,1.67-5,5-5h30v5Z"/><path d="M437,786.87h30l5,5h-15v20h-5v-20h-10l-5-5Z"/><path d="M482,786.87v25h-5v-25h5Z"/><path d="M487,806.87v-15c0-3.33,1.67-5,5-5h25l5,5h-30v15h25l5,5h-30c-3.33,0-5-1.67-5-5Z"/><path d="M547,791.87v-5h30c3.33,0,5,1.67,5,5v15c0,3.33-1.67,5-5,5h-30v-15h5v10h25v-15h-30Z"/><path d="M622,791.87h-35v-5h30l5,5Zm0,10h-35v-5h30l5,5Zm0,10h-35v-5h30l5,5Z"/><path d="M662,791.87h-30v5h25c3.33,0,5,1.67,5,5v5c0,3.33-1.67,5-5,5h-30v-5h30v-5h-25c-3.33,0-5-1.67-5-5v-5c0-3.33,1.67-5,5-5h30v5Z"/><path d="M672,786.87v25h-5v-25h5Z"/><path d="M712,811.87h-30c-3.33,0-5-1.67-5-5v-15c0-3.33,1.67-5,5-5h25l5,5h-30v15h25v-5h-10l-5-5h20v15Z"/><path d="M717,811.87v-25l30,16.29v-16.29h5v25l-30-15.98v15.98h-5Z"/></g></svg>